<svg width="245" height="68" viewBox="0 0 245 68" fill="none" xmlns="http://www.w3.org/2000/svg">
<path d="M14.88 62.48C13.12 62.48 11.456 62.32 9.888 62C8.32 61.648 6.96 61.232 5.808 60.752C4.656 60.272 3.808 59.824 3.264 59.408V50.816C4.8 51.68 6.736 52.496 9.072 53.264C11.408 54 14 54.368 16.848 54.368C18 54.368 18.848 54.224 19.392 53.936C19.968 53.616 20.256 53.072 20.256 52.304C20.256 51.472 19.616 50.784 18.336 50.24C17.088 49.664 15.104 48.96 12.384 48.128C10.272 47.456 8.464 46.72 6.96 45.92C5.488 45.088 4.352 44.064 3.552 42.848C2.784 41.6 2.4 40.016 2.4 38.096C2.4 36.112 2.912 34.32 3.936 32.72C4.96 31.12 6.56 29.856 8.736 28.928C10.912 28 13.696 27.536 17.088 27.536C18.112 27.536 19.2 27.584 20.352 27.68C21.536 27.744 22.48 27.84 23.184 27.968L28.608 31.952L26.736 37.808L15.36 34.688C14.048 34.688 13.072 34.96 12.432 35.504C11.824 36.048 11.52 36.704 11.52 37.472C11.52 38.4 12.048 39.136 13.104 39.68C14.16 40.224 15.68 40.768 17.664 41.312C20.8 42.176 23.232 43.136 24.96 44.192C26.688 45.248 27.904 46.448 28.608 47.792C29.312 49.104 29.664 50.592 29.664 52.256C29.664 55.328 28.432 57.808 25.968 59.696C23.504 61.552 19.808 62.48 14.88 62.48ZM43.1618 62.48C42.2338 62.48 41.3538 62.432 40.5218 62.336C39.7218 62.24 38.9858 62.128 38.3138 62L32.0738 59.12L34.9538 51.824L43.8338 54.896C45.8178 54.896 47.2418 54.304 48.1058 53.12C48.9698 51.904 49.4018 50.08 49.4018 47.648V35.696L48.3458 30.896L48.8738 28.016H57.9458L57.9938 49.184C57.9938 53.472 56.7138 56.768 54.1538 59.072C51.5938 61.344 47.9298 62.48 43.1618 62.48ZM65.1994 62V35.744L64.2394 30.944L65.2474 28.064H74.4154L83.8234 46.304H84.7834L92.5594 28.064H102.111L102.591 30.944L102.111 35.552V62H93.4234L93.5674 57.92V44.528H93.0394L91.1194 49.136L86.7994 57.2H81.0394L74.4154 44.528H73.9354V48.416L74.4154 62H65.1994ZM120.349 62.48C118.589 62.48 116.925 62.32 115.357 62C113.789 61.648 112.429 61.232 111.277 60.752C110.125 60.272 109.277 59.824 108.733 59.408V50.816C110.269 51.68 112.205 52.496 114.541 53.264C116.877 54 119.469 54.368 122.317 54.368C123.469 54.368 124.317 54.224 124.861 53.936C125.437 53.616 125.725 53.072 125.725 52.304C125.725 51.472 125.085 50.784 123.805 50.24C122.557 49.664 120.573 48.96 117.853 48.128C115.741 47.456 113.933 46.72 112.429 45.92C110.957 45.088 109.821 44.064 109.021 42.848C108.253 41.6 107.869 40.016 107.869 38.096C107.869 36.112 108.381 34.32 109.405 32.72C110.429 31.12 112.029 29.856 114.205 28.928C116.381 28 119.165 27.536 122.557 27.536C123.581 27.536 124.669 27.584 125.821 27.68C127.005 27.744 127.949 27.84 128.653 27.968L134.077 31.952L132.205 37.808L120.829 34.688C119.517 34.688 118.541 34.96 117.901 35.504C117.293 36.048 116.989 36.704 116.989 37.472C116.989 38.4 117.517 39.136 118.573 39.68C119.629 40.224 121.149 40.768 123.133 41.312C126.269 42.176 128.701 43.136 130.429 44.192C132.157 45.248 133.373 46.448 134.077 47.792C134.781 49.104 135.133 50.592 135.133 52.256C135.133 55.328 133.901 57.808 131.437 59.696C128.973 61.552 125.277 62.48 120.349 62.48Z" fill="#333333"/>
<line x1="153.5" y1="2.18557e-08" x2="153.5" y2="68" stroke="#CCCCCC"/>
<path d="M171.636 14.168C170.4 14.168 169.332 13.664 168.564 12.86L169.224 12.092C169.86 12.764 170.748 13.184 171.66 13.184C172.812 13.184 173.496 12.608 173.496 11.756C173.496 10.844 172.86 10.556 172.032 10.196L170.772 9.644C169.944 9.296 168.984 8.672 168.984 7.388C168.984 6.032 170.148 5.048 171.756 5.048C172.8 5.048 173.724 5.492 174.336 6.14L173.748 6.848C173.208 6.344 172.56 6.02 171.756 6.02C170.76 6.02 170.112 6.524 170.112 7.304C170.112 8.168 170.88 8.48 171.564 8.768L172.812 9.308C173.844 9.752 174.624 10.364 174.624 11.672C174.624 13.064 173.484 14.168 171.636 14.168ZM178.808 14.168C177.08 14.168 175.76 12.908 175.76 10.76C175.76 8.576 177.224 7.328 178.892 7.328C179.744 7.328 180.344 7.676 180.8 8.096L180.248 8.816C179.864 8.468 179.456 8.24 178.952 8.24C177.752 8.24 176.888 9.248 176.888 10.76C176.888 12.248 177.716 13.256 178.916 13.256C179.504 13.256 180.044 12.968 180.452 12.608L180.92 13.34C180.344 13.856 179.588 14.168 178.808 14.168ZM182.37 14V4.46H183.462V7.064L183.426 8.408C184.026 7.82 184.686 7.328 185.586 7.328C186.954 7.328 187.578 8.216 187.578 9.872V14H186.474V10.016C186.474 8.792 186.102 8.276 185.238 8.276C184.578 8.276 184.11 8.624 183.462 9.272V14H182.37ZM192.287 14.168C190.547 14.168 189.167 12.896 189.167 10.76C189.167 8.636 190.595 7.328 192.095 7.328C193.751 7.328 194.687 8.516 194.687 10.388C194.687 10.616 194.675 10.844 194.639 11.012H190.247C190.331 12.392 191.171 13.292 192.419 13.292C193.043 13.292 193.559 13.088 194.039 12.764L194.435 13.496C193.859 13.868 193.175 14.168 192.287 14.168ZM190.235 10.22H193.727C193.727 8.912 193.139 8.204 192.107 8.204C191.195 8.204 190.379 8.936 190.235 10.22ZM198.511 14.168C196.879 14.168 195.823 12.932 195.823 10.76C195.823 8.636 197.167 7.328 198.655 7.328C199.411 7.328 199.915 7.604 200.479 8.084L200.431 6.956V4.46H201.523V14H200.623L200.527 13.232H200.503C199.987 13.748 199.303 14.168 198.511 14.168ZM198.751 13.244C199.363 13.244 199.891 12.944 200.431 12.356V8.936C199.879 8.432 199.375 8.24 198.835 8.24C197.791 8.24 196.963 9.26 196.963 10.748C196.963 12.308 197.611 13.244 198.751 13.244ZM205.641 14.168C204.273 14.168 203.649 13.28 203.649 11.612V7.484H204.741V11.48C204.741 12.692 205.113 13.208 205.977 13.208C206.637 13.208 207.117 12.884 207.729 12.116V7.484H208.821V14H207.921L207.825 12.98H207.801C207.189 13.688 206.541 14.168 205.641 14.168ZM212.186 14.168C211.358 14.168 211.034 13.64 211.034 12.704V4.46H212.126V12.776C212.126 13.124 212.27 13.256 212.438 13.256C212.486 13.256 212.534 13.256 212.666 13.232L212.81 14.072C212.654 14.12 212.486 14.168 212.186 14.168ZM217.072 14.168C215.332 14.168 213.952 12.896 213.952 10.76C213.952 8.636 215.38 7.328 216.88 7.328C218.536 7.328 219.472 8.516 219.472 10.388C219.472 10.616 219.46 10.844 219.424 11.012H215.032C215.116 12.392 215.956 13.292 217.204 13.292C217.828 13.292 218.344 13.088 218.824 12.764L219.22 13.496C218.644 13.868 217.96 14.168 217.072 14.168ZM215.02 10.22H218.512C218.512 8.912 217.924 8.204 216.892 8.204C215.98 8.204 215.164 8.936 215.02 10.22ZM170.832 31.168C169.716 31.168 168.936 30.688 168.408 29.764L169.212 29.2C169.596 29.908 170.1 30.184 170.724 30.184C171.684 30.184 172.14 29.656 172.14 28.324V22.204H173.256V28.42C173.256 29.944 172.548 31.168 170.832 31.168ZM178.058 31.168C176.45 31.168 175.034 29.908 175.034 27.76C175.034 25.576 176.45 24.328 178.058 24.328C179.654 24.328 181.07 25.576 181.07 27.76C181.07 29.908 179.654 31.168 178.058 31.168ZM178.058 30.256C179.186 30.256 179.942 29.248 179.942 27.76C179.942 26.248 179.186 25.24 178.058 25.24C176.918 25.24 176.162 26.248 176.162 27.76C176.162 29.248 176.918 30.256 178.058 30.256ZM185.659 31.168C185.059 31.168 184.375 30.856 183.811 30.328H183.775L183.667 31H182.803V21.46H183.895V24.064L183.847 25.24C184.447 24.724 185.167 24.328 185.899 24.328C187.579 24.328 188.491 25.636 188.491 27.64C188.491 29.872 187.159 31.168 185.659 31.168ZM185.491 30.244C186.559 30.244 187.363 29.272 187.363 27.664C187.363 26.212 186.871 25.24 185.635 25.24C185.083 25.24 184.507 25.552 183.895 26.14V29.572C184.459 30.064 185.059 30.244 185.491 30.244ZM169.2 48V39.204H170.532L172.224 43.92C172.44 44.52 172.644 45.132 172.86 45.756H172.908C173.124 45.132 173.316 44.52 173.52 43.92L175.188 39.204H176.532V48H175.5V43.14C175.5 42.372 175.584 41.316 175.644 40.536H175.584L174.888 42.54L173.22 47.124H172.476L170.808 42.54L170.112 40.536H170.064C170.124 41.316 170.208 42.372 170.208 43.14V48H169.2ZM180.342 48.168C179.25 48.168 178.434 47.484 178.434 46.308C178.434 44.892 179.658 44.184 182.43 43.872C182.43 43.032 182.166 42.228 181.098 42.228C180.33 42.228 179.646 42.588 179.142 42.936L178.71 42.168C179.31 41.784 180.222 41.328 181.266 41.328C182.862 41.328 183.534 42.384 183.534 44.004V48H182.634L182.538 47.232H182.49C181.878 47.748 181.146 48.168 180.342 48.168ZM180.642 47.28C181.278 47.28 181.806 46.98 182.43 46.416V44.604C180.234 44.856 179.502 45.396 179.502 46.236C179.502 46.98 180.006 47.28 180.642 47.28ZM185.604 48V41.484H186.492L186.6 42.432H186.636C187.248 41.82 187.92 41.328 188.82 41.328C190.188 41.328 190.812 42.216 190.812 43.872V48H189.708V44.016C189.708 42.792 189.336 42.276 188.472 42.276C187.812 42.276 187.344 42.624 186.696 43.272V48H185.604ZM194.428 48.168C193.336 48.168 192.52 47.484 192.52 46.308C192.52 44.892 193.744 44.184 196.516 43.872C196.516 43.032 196.252 42.228 195.184 42.228C194.416 42.228 193.732 42.588 193.228 42.936L192.796 42.168C193.396 41.784 194.308 41.328 195.352 41.328C196.948 41.328 197.62 42.384 197.62 44.004V48H196.72L196.624 47.232H196.576C195.964 47.748 195.232 48.168 194.428 48.168ZM194.728 47.28C195.364 47.28 195.892 46.98 196.516 46.416V44.604C194.32 44.856 193.588 45.396 193.588 46.236C193.588 46.98 194.092 47.28 194.728 47.28ZM201.886 51C200.29 51 199.186 50.376 199.186 49.26C199.186 48.708 199.546 48.168 200.146 47.784V47.736C199.81 47.52 199.558 47.172 199.558 46.656C199.558 46.116 199.942 45.696 200.29 45.456V45.408C199.858 45.06 199.426 44.436 199.426 43.656C199.426 42.216 200.554 41.328 201.874 41.328C202.246 41.328 202.57 41.4 202.798 41.484H205.066V42.336H203.734C204.046 42.636 204.262 43.116 204.262 43.68C204.262 45.072 203.206 45.936 201.874 45.936C201.562 45.936 201.202 45.864 200.902 45.72C200.674 45.912 200.482 46.14 200.482 46.488C200.482 46.908 200.758 47.208 201.634 47.208H202.906C204.418 47.208 205.174 47.676 205.174 48.756C205.174 49.968 203.89 51 201.886 51ZM201.874 45.204C202.63 45.204 203.266 44.592 203.266 43.656C203.266 42.696 202.642 42.12 201.874 42.12C201.106 42.12 200.482 42.684 200.482 43.656C200.482 44.592 201.118 45.204 201.874 45.204ZM202.03 50.256C203.29 50.256 204.106 49.596 204.106 48.924C204.106 48.312 203.638 48.108 202.786 48.108H201.658C201.406 48.108 201.106 48.084 200.806 48C200.338 48.336 200.146 48.732 200.146 49.104C200.146 49.812 200.854 50.256 202.03 50.256ZM208.88 48.168C207.14 48.168 205.76 46.896 205.76 44.76C205.76 42.636 207.188 41.328 208.688 41.328C210.344 41.328 211.28 42.516 211.28 44.388C211.28 44.616 211.268 44.844 211.232 45.012H206.84C206.924 46.392 207.764 47.292 209.012 47.292C209.636 47.292 210.152 47.088 210.632 46.764L211.028 47.496C210.452 47.868 209.768 48.168 208.88 48.168ZM206.828 44.22H210.32C210.32 42.912 209.732 42.204 208.7 42.204C207.788 42.204 206.972 42.936 206.828 44.22ZM212.897 48V41.484H213.785L213.893 42.432H213.929C214.493 41.82 215.177 41.328 215.957 41.328C216.953 41.328 217.493 41.796 217.745 42.564C218.429 41.844 219.113 41.328 219.905 41.328C221.237 41.328 221.885 42.216 221.885 43.872V48H220.793V44.016C220.793 42.792 220.409 42.276 219.569 42.276C219.065 42.276 218.549 42.612 217.937 43.272V48H216.845V44.016C216.845 42.792 216.461 42.276 215.621 42.276C215.129 42.276 214.577 42.612 213.989 43.272V48H212.897ZM226.634 48.168C224.894 48.168 223.514 46.896 223.514 44.76C223.514 42.636 224.942 41.328 226.442 41.328C228.098 41.328 229.034 42.516 229.034 44.388C229.034 44.616 229.022 44.844 228.986 45.012H224.594C224.678 46.392 225.518 47.292 226.766 47.292C227.39 47.292 227.906 47.088 228.386 46.764L228.782 47.496C228.206 47.868 227.522 48.168 226.634 48.168ZM224.582 44.22H228.074C228.074 42.912 227.486 42.204 226.454 42.204C225.542 42.204 224.726 42.936 224.582 44.22ZM230.651 48V41.484H231.539L231.647 42.432H231.683C232.295 41.82 232.967 41.328 233.867 41.328C235.235 41.328 235.859 42.216 235.859 43.872V48H234.755V44.016C234.755 42.792 234.383 42.276 233.519 42.276C232.859 42.276 232.391 42.624 231.743 43.272V48H230.651ZM240.015 48.168C238.623 48.168 238.167 47.292 238.167 45.996V42.372H237.195V41.556L238.215 41.484L238.335 39.648H239.259V41.484H241.023V42.372H239.259V46.02C239.259 46.812 239.511 47.28 240.267 47.28C240.495 47.28 240.795 47.184 240.999 47.1L241.215 47.916C240.855 48.048 240.423 48.168 240.015 48.168ZM171.636 65.168C170.4 65.168 169.332 64.664 168.564 63.86L169.224 63.092C169.86 63.764 170.748 64.184 171.66 64.184C172.812 64.184 173.496 63.608 173.496 62.756C173.496 61.844 172.86 61.556 172.032 61.196L170.772 60.644C169.944 60.296 168.984 59.672 168.984 58.388C168.984 57.032 170.148 56.048 171.756 56.048C172.8 56.048 173.724 56.492 174.336 57.14L173.748 57.848C173.208 57.344 172.56 57.02 171.756 57.02C170.76 57.02 170.112 57.524 170.112 58.304C170.112 59.168 170.88 59.48 171.564 59.768L172.812 60.308C173.844 60.752 174.624 61.364 174.624 62.672C174.624 64.064 173.484 65.168 171.636 65.168ZM176.348 67.82C176.048 67.82 175.796 67.772 175.592 67.688L175.808 66.812C175.928 66.86 176.12 66.908 176.3 66.908C177.032 66.908 177.5 66.308 177.776 65.504L177.92 65.012L175.304 58.484H176.432L177.764 62.108C177.968 62.684 178.184 63.344 178.4 63.944H178.46C178.64 63.344 178.832 62.696 179 62.108L180.176 58.484H181.244L178.784 65.552C178.328 66.836 177.656 67.82 176.348 67.82ZM184.214 65.168C183.29 65.168 182.39 64.772 181.778 64.268L182.318 63.536C182.882 63.992 183.458 64.316 184.238 64.316C185.102 64.316 185.534 63.86 185.534 63.284C185.534 62.624 184.754 62.324 184.034 62.06C183.134 61.712 182.138 61.28 182.138 60.164C182.138 59.132 182.966 58.328 184.382 58.328C185.186 58.328 185.906 58.652 186.41 59.06L185.882 59.756C185.438 59.432 184.97 59.18 184.394 59.18C183.566 59.18 183.194 59.612 183.194 60.116C183.194 60.74 183.854 60.98 184.598 61.244C185.546 61.604 186.578 61.988 186.578 63.224C186.578 64.292 185.75 65.168 184.214 65.168ZM189.859 65.168C188.467 65.168 188.011 64.292 188.011 62.996V59.372H187.039V58.556L188.059 58.484L188.179 56.648H189.103V58.484H190.867V59.372H189.103V63.02C189.103 63.812 189.355 64.28 190.111 64.28C190.339 64.28 190.639 64.184 190.843 64.1L191.059 64.916C190.699 65.048 190.267 65.168 189.859 65.168ZM194.759 65.168C193.019 65.168 191.639 63.896 191.639 61.76C191.639 59.636 193.067 58.328 194.567 58.328C196.223 58.328 197.159 59.516 197.159 61.388C197.159 61.616 197.147 61.844 197.111 62.012H192.719C192.803 63.392 193.643 64.292 194.891 64.292C195.515 64.292 196.031 64.088 196.511 63.764L196.907 64.496C196.331 64.868 195.647 65.168 194.759 65.168ZM192.707 61.22H196.199C196.199 59.912 195.611 59.204 194.579 59.204C193.667 59.204 192.851 59.936 192.707 61.22ZM198.776 65V58.484H199.664L199.772 59.432H199.808C200.372 58.82 201.056 58.328 201.836 58.328C202.832 58.328 203.372 58.796 203.624 59.564C204.308 58.844 204.992 58.328 205.784 58.328C207.116 58.328 207.764 59.216 207.764 60.872V65H206.672V61.016C206.672 59.792 206.288 59.276 205.448 59.276C204.944 59.276 204.428 59.612 203.816 60.272V65H202.724V61.016C202.724 59.792 202.34 59.276 201.5 59.276C201.008 59.276 200.456 59.612 199.868 60.272V65H198.776Z" fill="#999999"/>
</svg>
