<svg width="67" height="18" viewBox="0 0 67 18" fill="none" xmlns="http://www.w3.org/2000/svg">
<path d="M6.44 17.74C5.56 17.74 4.728 17.66 3.944 17.5C3.16 17.324 2.48 17.116 1.904 16.876C1.328 16.636 0.904 16.412 0.632 16.204V11.908C1.4 12.34 2.368 12.748 3.536 13.132C4.704 13.5 6 13.684 7.424 13.684C8 13.684 8.424 13.612 8.696 13.468C8.984 13.308 9.128 13.036 9.128 12.652C9.128 12.236 8.808 11.892 8.168 11.62C7.544 11.332 6.552 10.98 5.192 10.564C4.136 10.228 3.232 9.86 2.48 9.46C1.744 9.044 1.176 8.532 0.776 7.924C0.392 7.3 0.2 6.508 0.2 5.548C0.2 4.556 0.456 3.66 0.968 2.86C1.48 2.06 2.28 1.428 3.368 0.964C4.456 0.499999 5.848 0.267999 7.544 0.267999C8.056 0.267999 8.6 0.291999 9.176 0.339999C9.768 0.371999 10.24 0.419999 10.592 0.483999L13.304 2.476L12.368 5.404L6.68 3.844C6.024 3.844 5.536 3.98 5.216 4.252C4.912 4.524 4.76 4.852 4.76 5.236C4.76 5.7 5.024 6.068 5.552 6.34C6.08 6.612 6.84 6.884 7.832 7.156C9.4 7.588 10.616 8.068 11.48 8.596C12.344 9.124 12.952 9.724 13.304 10.396C13.656 11.052 13.832 11.796 13.832 12.628C13.832 14.164 13.216 15.404 11.984 16.348C10.752 17.276 8.904 17.74 6.44 17.74ZM20.5809 17.74C20.1169 17.74 19.6769 17.716 19.2609 17.668C18.8609 17.62 18.4929 17.564 18.1569 17.5L15.0369 16.06L16.4769 12.412L20.9169 13.948C21.9089 13.948 22.6209 13.652 23.0529 13.06C23.4849 12.452 23.7009 11.54 23.7009 10.324V4.348L23.1729 1.948L23.4369 0.508H27.9729L27.9969 11.092C27.9969 13.236 27.3569 14.884 26.0769 16.036C24.7969 17.172 22.9649 17.74 20.5809 17.74ZM31.5997 17.5V4.372L31.1197 1.972L31.6237 0.532H36.2077L40.9117 9.652H41.3917L45.2797 0.532H50.0557L50.2957 1.972L50.0557 4.276V17.5H45.7117L45.7837 15.46V8.764H45.5197L44.5597 11.068L42.3997 15.1H39.5197L36.2077 8.764H35.9677V10.708L36.2077 17.5H31.5997ZM59.1744 17.74C58.2944 17.74 57.4624 17.66 56.6784 17.5C55.8944 17.324 55.2144 17.116 54.6384 16.876C54.0624 16.636 53.6384 16.412 53.3664 16.204V11.908C54.1344 12.34 55.1024 12.748 56.2704 13.132C57.4384 13.5 58.7344 13.684 60.1584 13.684C60.7344 13.684 61.1584 13.612 61.4304 13.468C61.7184 13.308 61.8624 13.036 61.8624 12.652C61.8624 12.236 61.5424 11.892 60.9024 11.62C60.2784 11.332 59.2864 10.98 57.9264 10.564C56.8704 10.228 55.9664 9.86 55.2144 9.46C54.4784 9.044 53.9104 8.532 53.5104 7.924C53.1264 7.3 52.9344 6.508 52.9344 5.548C52.9344 4.556 53.1904 3.66 53.7024 2.86C54.2144 2.06 55.0144 1.428 56.1024 0.964C57.1904 0.499999 58.5824 0.267999 60.2784 0.267999C60.7904 0.267999 61.3344 0.291999 61.9104 0.339999C62.5024 0.371999 62.9744 0.419999 63.3264 0.483999L66.0384 2.476L65.1024 5.404L59.4144 3.844C58.7584 3.844 58.2704 3.98 57.9504 4.252C57.6464 4.524 57.4944 4.852 57.4944 5.236C57.4944 5.7 57.7584 6.068 58.2864 6.34C58.8144 6.612 59.5744 6.884 60.5664 7.156C62.1344 7.588 63.3504 8.068 64.2144 8.596C65.0784 9.124 65.6864 9.724 66.0384 10.396C66.3904 11.052 66.5664 11.796 66.5664 12.628C66.5664 14.164 65.9504 15.404 64.7184 16.348C63.4864 17.276 61.6384 17.74 59.1744 17.74Z" fill="currentColor"/>
</svg>
