<svg width="25" height="25" viewBox="0 0 25 25" fill="none" xmlns="http://www.w3.org/2000/svg">
<path d="M12.7628 6.90172C9.45082 6.90172 6.76282 9.58972 6.76282 12.9017C6.76282 16.2137 9.45082 18.9017 12.7628 18.9017C16.0748 18.9017 18.7628 16.2137 18.7628 12.9017C18.7628 9.58972 16.0748 6.90172 12.7628 6.90172ZM12.7628 0.901718C6.13882 0.901718 0.762817 6.27772 0.762817 12.9017C0.762817 19.5257 6.13882 24.9017 12.7628 24.9017C19.3868 24.9017 24.7628 19.5257 24.7628 12.9017C24.7628 6.27772 19.3868 0.901718 12.7628 0.901718ZM12.7628 22.5017C7.45882 22.5017 3.16282 18.2057 3.16282 12.9017C3.16282 7.59772 7.45882 3.30172 12.7628 3.30172C18.0668 3.30172 22.3628 7.59772 22.3628 12.9017C22.3628 18.2057 18.0668 22.5017 12.7628 22.5017Z" fill="#3C4766"/>
</svg>
